{
    "accessors": {
        "accessor_21": {
            "bufferView": "bufferView_29",
            "byteOffset": 0,
            "byteStride": 0,
            "componentType": 5123,
            "count": 30,
            "type": "SCALAR"
        },
        "accessor_23": {
            "bufferView": "bufferView_30",
            "byteOffset": 0,
            "byteStride": 12,
            "componentType": 5126,
            "count": 30,
            "max": [
                1,
                1,
                0.00677621
            ],
            "min": [
                -1,
                -1,
                -0.00542605
            ],
            "type": "VEC3"
        },
        "accessor_25": {
            "bufferView": "bufferView_30",
            "byteOffset": 360,
            "byteStride": 12,
            "componentType": 5126,
            "count": 30,
            "max": [
                1,
                1,
                1
            ],
            "min": [
                -1,
                -1,
                0
            ],
            "type": "VEC3"
        },
        "accessor_27": {
            "bufferView": "bufferView_30",
            "byteOffset": 720,
            "byteStride": 8,
            "componentType": 5126,
            "count": 30,
            "max": [
                0.9999,
                0.9999
            ],
            "min": [
                9.998e-005,
                9.98974e-005
            ],
            "type": "VEC2"
        }
    },
    "animations": {},
    "asset": {
        "generator": "collada2gltf@cf6371beb0bdc18ba603378d5e40c966da53d385",
        "premultipliedAlpha": true,
        "profile": {
            "api": "WebGL",
            "version": "1.0.2"
        },
        "version": "1.0"
    },
    "bufferViews": {
        "bufferView_29": {
            "buffer": "roomfloor",
            "byteLength": 60,
            "byteOffset": 0,
            "target": 34963
        },
        "bufferView_30": {
            "buffer": "roomfloor",
            "byteLength": 960,
            "byteOffset": 60,
            "target": 34962
        }
    },
    "buffers": {
        "roomfloor": {
            "byteLength": 1020,
            "type": "arraybuffer",
            "uri": "roomfloor.bin"
        }
    },
    "extensionsUsed": [
        "KHR_materials_common"
    ],
    "images": {
        "roomfloor-diffuse": {
            "name": "roomfloor-diffuse",
            "uri": "roomfloor-diffuse.jpg"
        },
        "roomfloor-specular": {
            "name": "roomfloor-specular",
            "uri": "roomfloor-specular.jpg"
        }
    },
    "materials": {
        "roomfloor-effect": {
            "extensions": {
                "KHR_materials_common": {
                    "doubleSided": false,
                    "jointCount": 0,
                    "technique": "PHONG",
                    "transparent": false,
                    "values": {
                        "ambient": [
                            0,
                            0,
                            0,
                            1
                        ],
                        "diffuse": "texture_roomfloor-diffuse",
                        "emission": [
                            0,
                            0,
                            0,
                            1
                        ],
                        "shininess": 50,
                        "specular": "texture_roomfloor-specular"
                    }
                }
            },
            "name": "roomfloor"
        }
    },
    "meshes": {
        "Cube-mesh": {
            "name": "Cube",
            "primitives": [
                {
                    "attributes": {
                        "NORMAL": "accessor_25",
                        "POSITION": "accessor_23",
                        "TEXCOORD_0": "accessor_27"
                    },
                    "indices": "accessor_21",
                    "material": "roomfloor-effect",
                    "mode": 4
                }
            ]
        }
    },
    "nodes": {
        "Cube": {
            "children": [],
            "matrix": [
                1,
                0,
                0,
                0,
                0,
                1,
                0,
                0,
                0,
                0,
                1,
                0,
                0,
                0,
                0,
                1
            ],
            "meshes": [
                "Cube-mesh"
            ],
            "name": "Cube"
        },
        "node_1": {
            "children": [
                "Cube"
            ],
            "matrix": [
                1,
                0,
                0,
                0,
                0,
                0,
                -1,
                0,
                0,
                1,
                0,
                0,
                0,
                0,
                0,
                1
            ],
            "name": "Y_UP_Transform"
        }
    },
    "samplers": {
        "sampler_0": {
            "magFilter": 9729,
            "minFilter": 9729,
            "wrapS": 10497,
            "wrapT": 10497
        }
    },
    "scene": "defaultScene",
    "scenes": {
        "defaultScene": {
            "nodes": [
                "node_1"
            ]
        }
    },
    "skins": {},
    "textures": {
        "texture_roomfloor-diffuse": {
            "format": 6408,
            "internalFormat": 6408,
            "sampler": "sampler_0",
            "source": "roomfloor-diffuse",
            "target": 3553,
            "type": 5121
        },
        "texture_roomfloor-specular": {
            "format": 6408,
            "internalFormat": 6408,
            "sampler": "sampler_0",
            "source": "roomfloor-specular",
            "target": 3553,
            "type": 5121
        }
    }
}